Coordinates
version=1
nRows=16
nColumns=42
inDegrees=yes

Units are S.I. units (second, meters, Newtons, ...)
If the header above contains a line with 'inDegrees', this indicates whether rotational values are in degrees (yes) or radians (no).

endheader
time	pelvis_tilt	pelvis_list	pelvis_rotation	pelvis_tx	pelvis_ty	pelvis_tz	hip_flexion_r	hip_adduction_r	hip_rotation_r	knee_angle_r	knee_adduction_r	knee_angle_r_beta	ankle_angle_r	subtalar_angle_r	mtp_angle_r	hip_flexion_l	hip_adduction_l	hip_rotation_l	knee_angle_l	knee_adduction_l	knee_angle_l_beta	ankle_angle_l	subtalar_angle_l	mtp_angle_l	lumbar_extension	lumbar_bending	lumbar_rotation	arm_flex_r	arm_add_r	arm_rot_r	elbow_flex_r	pro_sup_r	wrist_flex_r	wrist_dev_r	arm_flex_l	arm_add_l	arm_rot_l	elbow_flex_l	pro_sup_l	wrist_flex_l	wrist_dev_l
      1.04000000	     11.98410388	      2.88995598	      8.66975606	     -1.61725215	      0.91232078	      0.00432502	      9.23436012	    -12.14338362	    -28.40926455	     26.92422719	      7.41604185	      0.46991641	     10.30927785	     32.65173193	     -7.92946753	    -18.26517842	      5.40311680	     -5.35464221	     17.75723035	     -3.54486327	      0.30992214	     19.70196582	      4.83053848	     -7.92946753	    -34.47289887	     -5.16713990	    -11.22690843	    -21.06874674	    -10.80769702	      9.16089765	     36.84557381	     90.00000001	      0.00000000	      0.00000000	     29.60288228	    -12.30180139	      0.01135059	     39.59389514	     90.00000001	      0.00000000	      0.00000000
      1.05000000	     11.97349595	      2.94572100	      8.69816875	     -1.60859976	      0.91148388	      0.00447946	      8.86350085	    -12.11111643	    -29.73916173	     25.04609679	      7.72483236	      0.43713685	      9.28591610	     33.88255204	     -7.91936491	    -18.89744015	      5.34060516	     -5.18598029	     17.72652875	     -3.52719200	      0.30938629	     19.70198989	      4.72225557	     -7.91936491	    -34.30201328	     -5.17804607	    -11.16702953	    -21.29668406	    -10.72763370	      8.92723843	     36.75964030	     90.00000001	      0.00000000	      0.00000000	     29.70743736	    -12.22236560	      0.27622811	     39.19728587	     90.00000001	      0.00000000	      0.00000000
      1.06000000	     11.87092510	      3.06273404	      8.74542228	     -1.60002366	      0.91055894	      0.00449232	      8.55948267	    -12.20898066	    -30.91486237	     23.36866098	      8.14343687	      0.40786008	      8.46509084	     34.84535953	     -7.91591471	    -19.42023506	      5.39558426	     -5.02572524	     17.70183106	     -3.60604304	      0.30895524	     19.66458379	      4.73326888	     -7.91591471	    -34.06165181	     -5.22077856	    -11.17452514	    -21.41545645	    -10.68035143	      8.77839600	     36.63407104	     90.00000001	      0.00000000	      0.00000000	     29.79635211	    -12.14587816	      0.48719483	     38.73397145	     90.00000001	      0.00000000	      0.00000000
      1.07000000	     11.97339864	      2.97846160	      8.75882928	     -1.59100621	      0.91001137	      0.00488295	      7.97790142	    -11.95226096	    -32.16873302	     21.73368825	      8.42538217	      0.37932442	      7.29892316	     35.66276045	     -7.90916599	    -20.23428911	      5.08749891	     -4.97714193	     17.54877008	     -3.45084286	      0.30628382	     19.60728308	      4.67999453	     -7.90916599	    -33.97093165	     -5.06237566	    -11.01608766	    -21.50580160	    -10.61336352	      8.46555376	     36.53041450	     90.00000001	      0.00000000	      0.00000000	     29.79314599	    -12.08283700	      0.70423927	     38.37675581	     90.00000001	      0.00000000	      0.00000000
      1.08000000	     11.93939169	      2.98930162	      8.79803313	     -1.58203921	      0.90929717	      0.00506106	      7.55925287	    -11.88965130	    -33.19227953	     20.45183708	      8.77237691	      0.35695190	      6.57196545	     36.23555156	     -7.90546757	    -20.86842275	      4.98472388	     -4.85765807	     17.46343426	     -3.49087164	      0.30479443	     19.47696105	      4.72774489	     -7.90546757	    -33.76442282	     -4.97200298	    -10.92630239	    -21.49822693	    -10.56827007	      8.29682748	     36.33381570	     90.00000001	      0.00000000	      0.00000000	     29.75846687	    -12.00573713	      0.85937270	     37.96800020	     90.00000001	      0.00000000	      0.00000000
      1.09000000	     11.99297626	      2.89929624	      8.81976391	     -1.57285368	      0.90880254	      0.00547130	      7.03422618	    -11.66275556	    -34.08046246	     19.34400403	      9.06670374	      0.33761656	      5.72646726	     36.60330275	     -7.90141955	    -21.60456454	      4.70757989	     -4.80864372	     17.35244759	     -3.42869166	      0.30285734	     19.33648124	      4.71729742	     -7.90141955	    -33.62059070	     -4.78122482	    -10.77806335	    -21.40466045	    -10.52251372	      8.08797912	     36.10656513	     90.00000001	      0.00000000	      0.00000000	     29.65443209	    -11.93629675	      0.97896861	     37.60376193	     90.00000001	      0.00000000	      0.00000000
      1.10000000	     11.82759105	      2.94823335	      8.63457182	     -1.56377749	      0.90790493	      0.00613580	      7.05614850	    -11.68166280	    -34.38645864	     19.09887613	      9.21987526	      0.33333827	      5.68983474	     36.47289067	     -7.90051242	    -22.02470564	      4.70959966	     -4.81977893	     17.46992699	     -3.41306931	      0.30490775	     19.30701170	      4.71753612	     -7.90051242	    -33.28271946	     -4.83339743	    -10.55979107	    -21.29181504	    -10.55895017	      8.05345057	     36.09071167	     90.00000001	      0.00000000	      0.00000000	     29.38302268	    -11.93032815	      0.98779053	     37.48910542	     90.00000001	      0.00000000	      0.00000000
      1.11000000	     12.08808049	      2.69282414	      8.81041761	     -1.55407811	      0.90800730	      0.00650930	      6.14453134	    -11.22106266	    -35.12173664	     18.21883268	      9.48731731	      0.31797862	      4.75238717	     36.84569014	     -7.89782248	    -22.94496610	      4.10522658	     -4.78931060	     17.40592834	     -3.28019417	      0.30379076	     18.92663775	      4.61512305	     -7.89782248	    -33.31093356	     -4.36074811	    -10.42142004	    -20.97381408	    -10.46054880	      7.86486950	     35.50062370	     90.00000001	      0.00000000	      0.00000000	     29.23479021	    -11.84413141	      1.06495281	     37.01458783	     90.00000001	      0.00000000	      0.00000000
      1.12000000	     11.94990722	      2.71035059	      8.71907194	     -1.54477378	      0.90744450	      0.00718171	      6.09932403	    -11.15743303	    -34.95185178	     18.25437810	      9.47552940	      0.31859900	      4.68181738	     36.63108751	     -7.89649825	    -23.29901087	      4.03839071	     -4.65677435	     17.67581424	     -3.31072886	      0.30850116	     18.82411591	      4.66217005	     -7.89649825	    -33.00908051	     -4.33150014	    -10.25529112	    -20.74354032	    -10.44917429	      7.83484059	     35.56836711	     90.00000001	      0.00000000	      0.00000000	     28.86927169	    -11.81649204	      1.06470301	     36.92149623	     90.00000001	      0.00000000	      0.00000000
      1.13000000	     12.55457375	      2.11876353	      8.80667336	     -1.53463415	      0.90841559	      0.00828571	      4.86849506	     -9.99976978	    -34.54262076	     17.41570993	      9.46912913	      0.30396148	      3.70433239	     36.23534853	     -7.88430901	    -24.45660119	      2.87427336	     -4.45394534	     17.90171485	     -2.76176394	      0.31244387	     18.10578364	      4.06879610	     -7.88430901	    -33.35682708	     -3.51658499	     -9.86707117	    -20.25461709	    -10.34241653	      7.27964181	     34.99744427	     90.00000001	      0.00000000	      0.00000000	     28.53340717	    -11.77023925	      0.85015194	     36.76331692	     90.00000001	      0.00000000	      0.00000000
      1.14000000	     12.77325689	      1.94484330	      8.76504143	     -1.52476222	      0.90874535	      0.00915896	      4.36898114	     -9.60473972	    -33.80669854	     17.67172933	      9.44900778	      0.30842986	      3.68282609	     35.64966853	     -7.87665630	    -25.03301689	      2.41467304	     -4.41617637	     18.48938547	     -2.63361305	      0.32270065	     17.43357008	      3.81033700	     -7.87665630	    -33.37771985	     -3.21066462	     -9.64684132	    -19.75814030	    -10.31199680	      7.19877691	     34.63407817	     90.00000001	      0.00000000	      0.00000000	     28.07792960	    -11.78173463	      0.71538358	     36.68050707	     90.00000001	      0.00000000	      0.00000000
      1.15000000	     13.04266920	      1.87677322	      8.73127102	     -1.51483042	      0.90934195	      0.00998163	      3.84225842	     -9.35523022	    -32.99656683	     18.19172755	      9.36561617	      0.31750554	      3.57717647	     35.60338740	     -7.87514900	    -25.60644378	      2.06555540	     -4.10746391	     19.19563481	     -2.51190736	      0.33502703	     16.89891112	      3.83730764	     -7.87514900	    -33.49028634	     -2.98473343	     -9.46065980	    -19.27995094	    -10.29122933	      7.17508099	     34.52400859	     90.00000001	      0.00000000	      0.00000000	     27.61575281	    -11.79208042	      0.63430686	     36.58312444	     90.00000001	      0.00000000	      0.00000000
      1.16000000	     13.51683961	      1.49284854	      8.60935073	     -1.50460219	      0.91056706	      0.01148269	      2.85151233	     -8.46933571	    -30.50714982	     17.84876222	      9.78577498	      0.31151967	      3.62365142	     32.86238541	     -7.84802469	    -26.12078481	      1.16434965	     -4.31894041	     20.42694909	     -2.03455502	      0.35651752	     15.48975850	      2.90660051	     -7.84802469	    -33.76799143	     -2.50814022	     -9.05523796	    -18.56681247	    -10.16996330	      6.82825014	     33.95033084	     90.00000001	      0.00000000	      0.00000000	     27.02276292	    -11.73149904	      0.01479804	     36.72021200	     90.00000001	      0.00000000	      0.00000000
      1.17000000	     13.93713148	      1.49232436	      8.47057248	     -1.49428338	      0.91168678	      0.01244473	      2.13740114	     -8.24646794	    -29.51574770	     18.51405824	      9.64120285	      0.32313127	      3.56191635	     32.94429167	     -7.84699580	    -26.66570299	      0.90067505	     -3.85049357	     21.51774048	     -1.92799393	      0.37555542	     14.74617935	      3.05244125	     -7.84699580	    -34.02729026	     -2.36679931	     -8.82691946	    -18.02831453	    -10.21334003	      6.81315282	     33.89646045	     90.00000001	      0.00000000	      0.00000000	     26.43688275	    -11.80531784	     -0.07696218	     36.62635443	     90.00000001	      0.00000000	      0.00000000
      1.18000000	     14.36556353	      1.23513797	      8.25046781	     -1.48411410	      0.91301173	      0.01434224	      1.34170078	     -7.53502605	    -27.61910144	     18.77832239	      9.71343501	      0.32774355	      4.27239932	     31.48544837	     -7.83996624	    -26.45426095	      0.03497953	     -4.83659654	     24.06426847	     -1.58094517	      0.42000072	     12.59571402	      2.25432954	     -7.83996624	    -34.32373954	     -2.11728302	     -8.43849412	    -17.19278451	    -10.07450213	      6.72936163	     33.38971502	     90.00000001	      0.00000000	      0.00000000	     25.63999659	    -11.86704873	     -0.56627281	     37.25719827	     90.00000001	      0.00000000	      0.00000000
      1.19000000	     14.96266451	      1.32030498	      7.98753318	     -1.47387917	      0.91478203	      0.01586623	      0.29356229	     -7.35088750	    -26.36258773	     19.27746190	      9.81566541	      0.33645518	      4.38840489	     31.16207401	     -7.83777841	    -26.65855479	     -0.35449847	     -4.53110096	     26.13038732	     -1.11909778	      0.45606129	     11.14345304	      2.35399403	     -7.83777841	    -34.85557596	     -2.15228040	     -8.09841001	    -16.50877495	     -9.99995145	      6.68344857	     33.36014716	     90.00000001	      0.00000000	      0.00000000	     25.03770819	    -11.90439855	     -0.78346137	     37.35182680	     90.00000001	      0.00000000	      0.00000000
